<svg width="1440" height="1918" viewBox="0 0 1440 1918" fill="none" xmlns="http://www.w3.org/2000/svg">
<path opacity="0.981" fill-rule="evenodd" clip-rule="evenodd" d="M1390.6 1918C1382.2 1918 1373.8 1918 1365.4 1918C1353.66 1909.96 1341.86 1901.97 1330 1894.03C1327 1902.03 1324 1910.02 1321 1918C1316.2 1918 1311.4 1918 1306.6 1918C1310.89 1906.05 1315.29 1894.15 1319.8 1882.31C1293.17 1811.2 1266.44 1740.17 1239.6 1669.22C1212.92 1740.38 1186.19 1811.5 1159.4 1882.57C1163.97 1894.29 1168.37 1906.1 1172.6 1918C1167.8 1918 1163 1918 1158.2 1918C1155.21 1910.02 1152.21 1902.03 1149.2 1894.03C1137.35 1901.97 1125.55 1909.96 1113.8 1918C1105.53 1918 1097.27 1918 1089 1918C1089.25 1916.5 1089.79 1915.17 1090.6 1914C1106.33 1903.53 1122.07 1893.05 1137.8 1882.57C1122.01 1872.15 1106.27 1861.58 1090.6 1850.88C1090.21 1850.09 1089.74 1849.38 1089.2 1848.75C1081.64 1828.42 1073.97 1808.18 1066.2 1788.02C1058.43 1808.18 1050.77 1828.42 1043.2 1848.75C1042.78 1849.59 1042.32 1850.39 1041.8 1851.14C1026.14 1861.49 1010.54 1871.96 995.001 1882.57C1010.2 1892.7 1025.4 1902.82 1040.6 1912.94C1042.18 1914.06 1043.25 1915.75 1043.8 1918C1035.4 1918 1027 1918 1018.6 1918C1006.86 1909.96 995.057 1901.97 983.201 1894.03C980.197 1902.03 977.197 1910.02 974.201 1918C969.401 1918 964.601 1918 959.801 1918C964.089 1906.05 968.489 1894.15 973.001 1882.31C946.437 1811.37 919.769 1740.52 893.001 1669.76C866.297 1740.35 839.697 1811.02 813.201 1881.78C812.933 1882.31 812.933 1882.84 813.201 1883.37C817.541 1894.93 821.873 1906.47 826.201 1918C821.269 1918 816.333 1918 811.401 1918C808.713 1909.95 805.713 1902.14 802.401 1894.56C790.625 1902.18 778.957 1909.99 767.401 1918C759.001 1918 750.601 1918 742.201 1918C742.593 1916.14 743.393 1914.63 744.601 1913.47C760.069 1903.17 775.533 1892.87 791.001 1882.57C775.337 1872.23 759.737 1861.76 744.201 1851.14C743.457 1850.31 742.857 1849.34 742.401 1848.21C734.801 1827.97 727.201 1807.73 719.601 1787.49C711.869 1808.08 704.133 1828.68 696.401 1849.28C695.801 1850.08 695.201 1850.88 694.601 1851.68C679.133 1861.98 663.669 1872.28 648.201 1882.57C663.669 1892.87 679.133 1903.17 694.601 1913.47C695.809 1914.63 696.609 1916.14 697.001 1918C688.733 1918 680.469 1918 672.201 1918C660.457 1909.96 648.657 1901.97 636.801 1894.03C633.585 1901.88 630.585 1909.87 627.801 1918C623.001 1918 618.201 1918 613.401 1918C617.377 1906.35 621.577 1894.8 626.001 1883.37C626.269 1882.66 626.269 1881.95 626.001 1881.24C599.469 1810.57 572.933 1739.9 546.401 1669.22C519.633 1739.99 492.965 1810.84 466.401 1881.78C466.133 1882.31 466.133 1882.84 466.401 1883.37C470.741 1894.93 475.073 1906.47 479.401 1918C474.469 1918 469.533 1918 464.601 1918C461.913 1909.95 458.913 1902.14 455.601 1894.56C443.825 1902.18 432.157 1909.99 420.601 1918C412.201 1918 403.801 1918 395.401 1918C395.793 1916.14 396.593 1914.63 397.801 1913.47C413.269 1903.17 428.733 1892.87 444.201 1882.57C428.537 1872.23 412.937 1861.76 397.401 1851.14C396.657 1850.31 396.057 1849.34 395.601 1848.21C388.001 1827.97 380.401 1807.73 372.801 1787.49C365.069 1808.08 357.333 1828.68 349.601 1849.28C349.001 1850.08 348.401 1850.88 347.801 1851.68C332.333 1861.98 316.869 1872.28 301.401 1882.57C316.869 1892.87 332.333 1903.17 347.801 1913.47C349.009 1914.63 349.809 1916.14 350.201 1918C341.933 1918 333.669 1918 325.401 1918C313.657 1909.96 301.857 1901.97 290.001 1894.03C286.785 1901.88 283.785 1909.87 281.001 1918C276.201 1918 271.401 1918 266.601 1918C270.577 1906.35 274.777 1894.8 279.201 1883.37C279.469 1882.66 279.469 1881.95 279.201 1881.24C252.669 1810.57 226.133 1739.9 199.601 1669.22C172.833 1739.99 146.165 1810.84 119.601 1881.78C119.333 1882.31 119.333 1882.84 119.601 1883.37C123.941 1894.93 128.273 1906.47 132.601 1918C127.669 1918 122.733 1918 117.801 1918C115.113 1909.95 112.113 1902.14 108.801 1894.56C97.0251 1902.18 85.3572 1909.99 73.8011 1918C65.4011 1918 57.0011 1918 48.6012 1918C48.9932 1916.14 49.7931 1914.63 51.0011 1913.47C66.4691 1903.17 81.9331 1892.87 97.4011 1882.57C81.7372 1872.23 66.1372 1861.76 50.6012 1851.14C49.8572 1850.31 49.2572 1849.34 48.8011 1848.21C41.2012 1827.97 33.6012 1807.73 26.0011 1787.49C18.2692 1808.08 10.5332 1828.68 2.80115 1849.28C2.08911 1850.5 1.2251 1851.39 0.201172 1851.94C0.201172 1840.22 0.201172 1828.5 0.201172 1816.78C5.94519 1802.11 11.5452 1787.28 17.0011 1772.3C11.5771 1768.07 5.97717 1764.25 0.201172 1760.85C0.201172 1754.28 0.201172 1747.71 0.201172 1741.14C8.58911 1746.73 16.9891 1752.32 25.4011 1757.92C25.8011 1758.28 26.2012 1758.28 26.6012 1757.92C79.7291 1722.63 132.797 1687.21 185.801 1651.64C132.665 1615.99 79.4652 1580.48 26.2012 1545.1C17.5731 1550.93 8.90918 1556.62 0.201172 1562.15C0.201172 1555.76 0.201172 1549.36 0.201172 1542.97C5.92517 1539.16 11.6571 1535.34 17.4011 1531.52C11.7052 1516.44 5.97314 1501.43 0.201172 1486.5C0.201172 1474.78 0.201172 1463.06 0.201172 1451.34C1.2251 1451.9 2.08911 1452.79 2.80115 1454.01C10.5332 1474.61 18.2692 1495.2 26.0011 1515.8C33.7651 1494.94 41.6332 1474.17 49.6012 1453.47C50.2251 1452.48 50.9572 1451.68 51.8011 1451.08C67.0011 1440.96 82.2012 1430.83 97.4011 1420.71C81.9331 1410.41 66.4691 1400.11 51.0011 1389.82C50.4011 1389.02 49.8011 1388.22 49.2012 1387.42C41.4691 1366.82 33.7332 1346.22 26.0011 1325.62C18.2692 1346.22 10.5332 1366.82 2.80115 1387.42C2.08911 1388.64 1.2251 1389.53 0.201172 1390.08C0.201172 1378.54 0.201172 1367 0.201172 1355.46C5.97314 1340.52 11.7052 1325.52 17.4011 1310.44C11.7692 1306.34 6.03711 1302.52 0.201172 1298.99C0.201172 1292.42 0.201172 1285.85 0.201172 1279.28C8.58911 1284.87 16.9891 1290.46 25.4011 1296.06C25.9331 1296.41 26.4691 1296.41 27.0011 1296.06C80.0691 1260.72 133.133 1225.38 186.201 1190.05C133.065 1154.4 79.8651 1118.88 26.6012 1083.51C26.2012 1083.15 25.8011 1083.15 25.4011 1083.51C16.9891 1089.1 8.58911 1094.7 0.201172 1100.29C0.201172 1093.89 0.201172 1087.5 0.201172 1081.11C5.92517 1077.3 11.6571 1073.48 17.4011 1069.65C11.7052 1054.57 5.97314 1039.57 0.201172 1024.64C0.201172 1012.92 0.201172 1001.2 0.201172 989.481C1.23315 990.051 2.09717 990.936 2.80115 992.145C10.5332 1012.74 18.2692 1033.34 26.0011 1053.94C33.9691 1033.25 41.8372 1012.47 49.6012 991.612C49.9331 991.17 50.2692 990.723 50.6012 990.28C66.2651 979.94 81.8651 969.462 97.4011 958.85C81.9331 948.553 66.4691 938.25 51.0011 927.953C50.4011 927.154 49.8011 926.355 49.2012 925.556C41.4691 904.956 33.7332 884.361 26.0011 863.761C18.0891 885.107 10.0211 906.325 1.80115 927.42C1.30518 927.841 0.769165 928.107 0.201172 928.219C0.201172 916.675 0.201172 905.137 0.201172 893.593C5.97314 878.661 11.7052 863.66 17.4011 848.579C11.7692 844.477 6.03711 840.657 0.201172 837.125C0.201172 830.733 0.201172 824.34 0.201172 817.948C8.87317 823.413 17.4731 829.092 26.0011 834.995C79.3691 799.324 132.769 763.723 186.201 728.186C132.769 692.648 79.3691 657.047 26.0011 621.377C17.4731 627.279 8.87317 632.958 0.201172 638.424C0.201172 632.031 0.201172 625.638 0.201172 619.246C6.03711 615.714 11.7692 611.894 17.4011 607.792C11.7052 592.711 5.97314 577.71 0.201172 562.778C0.201172 551.059 0.201172 539.339 0.201172 527.619C1.51318 528.392 2.51318 529.633 3.20117 531.348C10.6931 551.836 18.2931 572.255 26.0011 592.61C33.8691 571.659 41.7332 550.702 49.6012 529.75C50.1652 529.063 50.7651 528.445 51.4011 527.886C66.6652 517.812 81.8651 507.6 97.0011 497.255C81.8651 486.909 66.6652 476.697 51.4011 466.624C50.9252 465.904 50.3932 465.281 49.8011 464.759C41.8691 443.983 33.9331 423.208 26.0011 402.432C18.4011 422.675 10.8011 442.918 3.20117 463.161C2.51318 464.876 1.51318 466.118 0.201172 466.89C0.201172 455.17 0.201172 443.451 0.201172 431.731C5.97314 416.799 11.7052 401.798 17.4011 386.717C11.6571 382.892 5.92517 379.072 0.201172 375.263C0.201172 368.871 0.201172 362.478 0.201172 356.086C8.87317 361.551 17.4731 367.23 26.0011 373.132C79.2971 337.595 132.565 301.994 185.801 266.323C132.441 230.925 79.1731 195.324 26.0011 159.515C17.3612 165.316 8.76111 171.176 0.201172 177.094C0.201172 170.526 0.201172 163.952 0.201172 157.384C5.92517 153.575 11.6571 149.755 17.4011 145.93C11.7052 130.849 5.97314 115.848 0.201172 100.916C0.201172 89.1965 0.201172 77.4768 0.201172 65.7571C0.957153 66.3964 1.69312 67.1049 2.40112 67.8879C10.2692 88.8396 18.1332 109.797 26.0011 130.748C33.7332 110.148 41.4691 89.5535 49.2012 68.9534C49.9331 67.9785 50.6692 66.9983 51.4011 66.0234C66.6652 55.9498 81.8651 45.7378 97.0011 35.3925C81.8651 25.0472 66.6652 14.8351 51.4011 4.76147C49.9531 3.81323 49.0211 2.30042 48.6012 0.233398C57.1332 0.233398 65.6692 0.233398 74.2012 0.233398C85.7131 8.16553 97.3131 15.9805 109.001 23.6729C112.149 15.9965 115.081 8.18152 117.801 0.233398C122.733 0.233398 127.669 0.233398 132.601 0.233398C128.273 11.7614 123.941 23.3052 119.601 34.8597C119.333 35.3925 119.333 35.9252 119.601 36.4579C146.097 107.213 172.697 177.888 199.401 248.478C226.105 177.888 252.705 107.213 279.201 36.4579C279.469 35.7494 279.469 35.0355 279.201 34.327C274.889 23.0176 270.689 11.6494 266.601 0.233398C271.401 0.233398 276.201 0.233398 281.001 0.233398C283.865 8.21875 286.933 16.0337 290.201 23.6729C301.889 15.9805 313.489 8.16553 325.001 0.233398C333.401 0.233398 341.801 0.233398 350.201 0.233398C349.789 1.76233 349.125 3.09412 348.201 4.22876C332.673 14.4781 317.205 24.8661 301.801 35.3925C316.937 45.7378 332.137 55.9498 347.401 66.0234C348.037 66.5829 348.637 67.2008 349.201 67.8879C357.069 88.8396 364.933 109.797 372.801 130.748C380.533 110.148 388.269 89.5535 396.001 68.9534C396.733 67.9785 397.469 66.9983 398.201 66.0234C413.465 55.9498 428.665 45.7378 443.801 35.3925C428.665 25.0472 413.465 14.8351 398.201 4.76147C396.753 3.81323 395.821 2.30042 395.401 0.233398C403.933 0.233398 412.469 0.233398 421.001 0.233398C432.513 8.16553 444.113 15.9805 455.801 23.6729C458.949 15.9965 461.881 8.18152 464.601 0.233398C469.533 0.233398 474.469 0.233398 479.401 0.233398C475.073 11.7614 470.741 23.3052 466.401 34.8597C466.133 35.3925 466.133 35.9252 466.401 36.4579C492.897 107.213 519.497 177.888 546.201 248.478C572.905 177.888 599.505 107.213 626.001 36.4579C626.269 35.7494 626.269 35.0355 626.001 34.327C621.689 23.0176 617.489 11.6494 613.401 0.233398C618.201 0.233398 623.001 0.233398 627.801 0.233398C630.665 8.21875 633.733 16.0337 637.001 23.6729C648.689 15.9805 660.289 8.16553 671.801 0.233398C680.201 0.233398 688.601 0.233398 697.001 0.233398C696.589 1.76233 695.925 3.09412 695.001 4.22876C679.473 14.4781 664.005 24.8661 648.601 35.3925C663.737 45.7378 678.937 55.9498 694.201 66.0234C694.837 66.5829 695.437 67.2008 696.001 67.8879C703.869 88.8396 711.733 109.797 719.601 130.748C727.333 110.148 735.069 89.5535 742.801 68.9534C743.533 67.9785 744.269 66.9983 745.001 66.0234C760.265 55.9498 775.465 45.7378 790.601 35.3925C775.465 25.0472 760.265 14.8351 745.001 4.76147C743.553 3.81323 742.621 2.30042 742.201 0.233398C750.733 0.233398 759.269 0.233398 767.801 0.233398C779.313 8.16553 790.913 15.9805 802.601 23.6729C805.749 15.9965 808.681 8.18152 811.401 0.233398C816.333 0.233398 821.269 0.233398 826.201 0.233398C821.873 11.7614 817.541 23.3052 813.201 34.8597C812.933 35.3925 812.933 35.9252 813.201 36.4579C839.733 107.133 866.269 177.803 892.801 248.478C919.637 177.531 946.369 106.504 973.001 35.3925C968.597 23.6569 964.197 11.9371 959.801 0.233398C964.733 0.233398 969.669 0.233398 974.601 0.233398C977.321 8.18152 980.253 15.9965 983.401 23.6729C995.089 15.9805 1006.69 8.16553 1018.2 0.233398C1026.73 0.233398 1035.27 0.233398 1043.8 0.233398C1043.1 1.96472 1042.17 3.47229 1041 4.76147C1025.61 14.9257 1010.27 25.223 995.001 35.6588C1010.47 45.9562 1025.93 56.2588 1041.4 66.5562C1041.87 67.1794 1042.33 67.7974 1042.8 68.4207C1050.5 89.1006 1058.3 109.701 1066.2 130.215C1074.1 109.701 1081.9 89.1006 1089.6 68.4207C1090.07 67.7974 1090.53 67.1794 1091 66.5562C1106.53 56.3068 1122 45.9189 1137.4 35.3925C1122 24.8661 1106.53 14.4781 1091 4.22876C1089.92 3.23792 1089.25 1.90613 1089 0.233398C1097.4 0.233398 1105.8 0.233398 1114.2 0.233398C1125.71 8.16553 1137.31 15.9805 1149 23.6729C1152.27 16.0337 1155.34 8.21875 1158.2 0.233398C1163 0.233398 1167.8 0.233398 1172.6 0.233398C1168.37 12.1395 1163.97 23.9445 1159.4 35.6588C1186.19 106.733 1212.92 177.851 1239.6 249.01C1266.33 177.803 1293.07 106.6 1319.8 35.3925C1315.4 23.6569 1311 11.9371 1306.6 0.233398C1311.53 0.233398 1316.47 0.233398 1321.4 0.233398C1324.12 8.18152 1327.05 15.9965 1330.2 23.6729C1341.89 15.9805 1353.49 8.16553 1365 0.233398C1373.53 0.233398 1382.07 0.233398 1390.6 0.233398C1389.9 1.96472 1388.97 3.47229 1387.8 4.76147C1372.41 14.9257 1357.07 25.223 1341.8 35.6588C1357.27 45.9562 1372.73 56.2588 1388.2 66.5562C1388.67 67.1794 1389.13 67.7974 1389.6 68.4207C1397.3 89.1006 1405.1 109.701 1413 130.215C1420.9 109.701 1428.7 89.1006 1436.4 68.4207C1437.39 66.7427 1438.65 65.6772 1440.2 65.2244C1440.2 76.0544 1440.2 86.8899 1440.2 97.7198C1434.03 113.717 1427.9 129.784 1421.8 145.93C1427.88 150.245 1434.02 154.422 1440.2 158.449C1440.2 164.842 1440.2 171.234 1440.2 177.627C1431.19 171.671 1422.19 165.635 1413.2 159.515C1359.83 195.185 1306.43 230.786 1253 266.323C1306.43 301.861 1359.83 337.462 1413.2 373.132C1422.18 367.022 1431.18 360.981 1440.2 355.02C1440.2 361.413 1440.2 367.805 1440.2 374.198C1434.02 378.225 1427.88 382.402 1421.8 386.717C1427.9 402.863 1434.03 418.93 1440.2 434.927C1440.2 445.757 1440.2 456.593 1440.2 467.423C1438.65 466.97 1437.39 465.904 1436.4 464.226C1428.67 443.626 1420.93 423.032 1413.2 402.432C1405.5 422.414 1397.9 442.481 1390.4 462.628C1389.82 463.939 1389.08 465.095 1388.2 466.091C1372.73 476.388 1357.27 486.691 1341.8 496.988C1357.07 507.424 1372.41 517.721 1387.8 527.886C1388.53 528.86 1389.27 529.841 1390 530.816C1397.46 551.384 1405.12 571.808 1413 592.078C1420.9 571.563 1428.7 550.963 1436.4 530.283C1437.39 528.605 1438.65 527.539 1440.2 527.087C1440.2 537.741 1440.2 548.395 1440.2 559.049C1434.14 575.292 1428 591.539 1421.8 607.792C1427.88 612.108 1434.02 616.284 1440.2 620.311C1440.2 626.704 1440.2 633.096 1440.2 639.489C1431.36 633.869 1422.56 628.1 1413.8 622.176C1413.27 621.819 1412.73 621.819 1412.2 622.176C1359.13 657.511 1306.07 692.851 1253 728.186C1306.07 763.521 1359.13 798.861 1412.2 834.196C1412.73 834.552 1413.27 834.552 1413.8 834.196C1422.56 828.272 1431.36 822.502 1440.2 816.882C1440.2 823.275 1440.2 829.667 1440.2 836.06C1434.02 840.087 1427.88 844.264 1421.8 848.579C1427.9 864.725 1434.03 880.792 1440.2 896.789C1440.2 907.619 1440.2 918.455 1440.2 929.285C1438.79 928.566 1437.52 927.5 1436.4 926.089C1428.7 905.409 1420.9 884.809 1413 864.294C1405.1 884.809 1397.3 905.409 1389.6 926.089C1389.13 926.712 1388.67 927.33 1388.2 927.953C1372.73 938.25 1357.27 948.553 1341.8 958.85C1357.53 969.505 1373.27 980.159 1389 990.813C1397.12 1011.81 1405.19 1032.85 1413.2 1053.94C1420.93 1033.34 1428.67 1012.74 1436.4 992.145C1437.39 990.376 1438.66 989.13 1440.2 988.416C1440.2 999.246 1440.2 1010.08 1440.2 1020.91C1433.98 1036.96 1427.84 1053.11 1421.8 1069.39C1427.83 1073.76 1433.97 1077.84 1440.2 1081.64C1440.2 1088.21 1440.2 1094.78 1440.2 1101.35C1431.15 1095.32 1422.08 1089.29 1413 1083.24C1359.61 1118.71 1306.27 1154.31 1253 1190.05C1306.07 1225.38 1359.13 1260.72 1412.2 1296.06C1412.73 1296.41 1413.27 1296.41 1413.8 1296.06C1422.56 1290.13 1431.36 1284.36 1440.2 1278.74C1440.2 1285.14 1440.2 1291.53 1440.2 1297.92C1434.02 1301.95 1427.88 1306.13 1421.8 1310.44C1427.9 1326.59 1434.03 1342.65 1440.2 1358.65C1440.2 1369.48 1440.2 1380.32 1440.2 1391.15C1438.39 1390.43 1436.99 1389.01 1436 1386.89C1428.44 1366.56 1420.77 1346.31 1413 1326.16C1405.1 1346.67 1397.3 1367.27 1389.6 1387.95C1389.27 1388.39 1388.93 1388.84 1388.6 1389.28C1373.06 1399.9 1357.46 1410.37 1341.8 1420.71C1357.34 1431.33 1372.94 1441.8 1388.6 1452.14C1388.93 1452.59 1389.27 1453.03 1389.6 1453.47C1397.3 1474.16 1405.1 1494.75 1413 1515.27C1420.77 1495.11 1428.44 1474.87 1436 1454.54C1437.11 1452.61 1438.51 1451.19 1440.2 1450.28C1440.2 1461.11 1440.2 1471.94 1440.2 1482.77C1433.98 1498.82 1427.84 1514.98 1421.8 1531.25C1427.83 1535.62 1433.97 1539.71 1440.2 1543.5C1440.2 1550.07 1440.2 1556.64 1440.2 1563.21C1431.15 1557.18 1422.08 1551.15 1413 1545.1C1359.74 1580.48 1306.54 1615.99 1253.4 1651.64C1306.41 1687.21 1359.47 1722.63 1412.6 1757.92C1413 1758.28 1413.4 1758.28 1413.8 1757.92C1422.56 1752 1431.36 1746.23 1440.2 1740.61C1440.2 1747 1440.2 1753.39 1440.2 1759.78C1433.97 1763.58 1427.83 1767.67 1421.8 1772.04C1427.84 1788.31 1433.98 1804.47 1440.2 1820.51C1440.2 1831.35 1440.2 1842.18 1440.2 1853.01C1438.51 1852.1 1437.11 1850.68 1436 1848.75C1428.44 1828.42 1420.77 1808.18 1413 1788.02C1405.23 1808.18 1397.57 1828.42 1390 1848.75C1389.58 1849.59 1389.12 1850.39 1388.6 1851.14C1372.94 1861.49 1357.34 1871.96 1341.8 1882.57C1357 1892.7 1372.2 1902.82 1387.4 1912.94C1388.98 1914.06 1390.05 1915.75 1390.6 1918ZM1330.2 1871.12C1305.14 1805.25 1280.4 1739.19 1256 1672.95C1305.43 1705.91 1354.83 1738.94 1404.2 1772.04C1396 1793.88 1387.8 1815.72 1379.6 1837.56C1363.14 1848.83 1346.67 1860.02 1330.2 1871.12ZM983.401 1871.12C958.337 1805.25 933.605 1739.19 909.201 1672.95C958.633 1705.91 1008.03 1738.94 1057.4 1772.04C1049.2 1793.88 1041 1815.72 1032.8 1837.56C1016.34 1848.83 999.873 1860.02 983.401 1871.12ZM1149.4 1870.59C1132.83 1859.82 1116.29 1848.9 1099.8 1837.83C1091.48 1815.94 1083.22 1794.01 1075 1772.04C1124.37 1738.94 1173.77 1705.91 1223.2 1672.95C1198.84 1738.92 1174.24 1804.79 1149.4 1870.59ZM876.601 1673.48C852.181 1739.06 827.649 1804.59 803.001 1870.06C802.657 1870.63 802.257 1870.72 801.801 1870.32C785.669 1859.58 769.533 1848.84 753.401 1838.09C745.097 1816.51 736.897 1794.85 728.801 1773.1C728.501 1772.5 728.569 1771.96 729.001 1771.5C778.161 1738.68 827.361 1706.01 876.601 1673.48ZM562.601 1673.48C611.841 1706.01 661.041 1738.68 710.201 1771.5C710.633 1771.96 710.701 1772.5 710.401 1773.1C702.333 1794.59 694.269 1816.07 686.201 1837.56C669.997 1848.62 653.729 1859.54 637.401 1870.32C636.945 1870.72 636.545 1870.63 636.201 1870.06C611.553 1804.59 587.021 1739.06 562.601 1673.48ZM529.801 1673.48C505.381 1739.06 480.849 1804.59 456.201 1870.06C455.857 1870.63 455.457 1870.72 455.001 1870.32C438.869 1859.58 422.733 1848.84 406.601 1838.09C398.297 1816.51 390.097 1794.85 382.001 1773.1C381.701 1772.5 381.769 1771.96 382.201 1771.5C431.361 1738.68 480.561 1706.01 529.801 1673.48ZM215.801 1673.48C265.041 1706.01 314.241 1738.68 363.401 1771.5C363.833 1771.96 363.901 1772.5 363.601 1773.1C355.533 1794.59 347.469 1816.07 339.401 1837.56C323.197 1848.62 306.929 1859.54 290.601 1870.32C290.145 1870.72 289.745 1870.63 289.401 1870.06C264.753 1804.59 240.221 1739.06 215.801 1673.48ZM183.001 1673.48C158.581 1739.06 134.049 1804.59 109.401 1870.06C109.057 1870.63 108.657 1870.72 108.201 1870.32C92.0691 1859.58 75.9331 1848.84 59.8011 1838.09C51.4972 1816.51 43.2971 1794.85 35.2012 1773.1C34.9011 1772.5 34.9691 1771.96 35.4011 1771.5C84.5612 1738.68 133.761 1706.01 183.001 1673.48ZM1067 1758.19C1013.39 1723.11 959.921 1687.59 906.601 1651.64C959.737 1615.99 1012.94 1580.48 1066.2 1545.1C1119.6 1580.57 1172.93 1616.17 1226.2 1651.91C1173.05 1687.22 1119.98 1722.64 1067 1758.19ZM720.201 1758.19C666.649 1723.06 613.181 1687.63 559.801 1651.91C613.073 1616.17 666.405 1580.57 719.801 1545.1C773.065 1580.48 826.265 1615.99 879.401 1651.64C826.309 1687.17 773.245 1722.69 720.201 1758.19ZM373.401 1758.19C319.849 1723.06 266.381 1687.63 213.001 1651.91C266.273 1616.17 319.605 1580.57 373.001 1545.1C426.265 1580.48 479.465 1615.99 532.601 1651.64C479.509 1687.17 426.445 1722.69 373.401 1758.19ZM1239.8 1634.06C1212.96 1563.02 1186.16 1491.9 1159.4 1420.71C1186.19 1349.64 1212.92 1278.52 1239.6 1207.36C1266.33 1278.57 1293.07 1349.77 1319.8 1420.98C1293.13 1492.02 1266.46 1563.05 1239.8 1634.06ZM546.601 1634.06C519.553 1563.18 492.753 1492.06 466.201 1420.71C492.713 1349.66 519.377 1278.72 546.201 1207.89C573.081 1278.78 599.745 1349.8 626.201 1420.98C599.665 1492.02 573.129 1563.04 546.601 1634.06ZM199.801 1634.06C172.753 1563.18 145.953 1492.06 119.401 1420.71C145.913 1349.66 172.577 1278.72 199.401 1207.89C226.281 1278.78 252.945 1349.8 279.401 1420.98C252.865 1492.02 226.329 1563.04 199.801 1634.06ZM893.401 1633.53C893.049 1633.6 892.785 1633.42 892.601 1633C866.013 1562.27 839.481 1491.51 813.001 1420.71C839.545 1349.74 866.145 1278.8 892.801 1207.89C919.637 1278.84 946.369 1349.87 973.001 1420.98C946.353 1491.78 919.821 1562.63 893.401 1633.53ZM1256.6 1630.34C1256.31 1630.4 1256.04 1630.32 1255.8 1630.07C1280.69 1564.21 1305.43 1498.24 1330 1432.17C1346.3 1443.15 1362.64 1454.08 1379 1464.93C1387.73 1487.02 1396.06 1509.3 1404 1531.78C1354.81 1564.58 1305.68 1597.43 1256.6 1630.34ZM1223.4 1630.34C1173.88 1597.45 1124.42 1564.42 1075 1531.25C1083.2 1509.41 1091.4 1487.57 1099.6 1465.73C1116.12 1454.42 1132.72 1443.5 1149.4 1432.96C1174.23 1498.66 1198.9 1564.45 1223.4 1630.34ZM909.801 1630.34C909.505 1630.4 909.237 1630.32 909.001 1630.07C933.893 1564.21 958.629 1498.24 983.201 1432.17C999.505 1443.15 1015.84 1454.08 1032.2 1464.93C1040.93 1487.02 1049.26 1509.3 1057.2 1531.78C1008.01 1564.58 958.877 1597.43 909.801 1630.34ZM877.001 1629.8C876.977 1630.09 876.845 1630.27 876.601 1630.34C827.133 1597.4 777.669 1564.46 728.201 1531.52C736.517 1509.63 744.785 1487.7 753.001 1465.73C769.205 1454.67 785.473 1443.75 801.801 1432.96C802.257 1432.57 802.657 1432.65 803.001 1433.23C827.577 1498.87 852.245 1564.39 877.001 1629.8ZM563.001 1630.34C562.785 1630.3 562.649 1630.13 562.601 1629.8C587.241 1564.34 611.777 1498.82 636.201 1433.23C636.545 1432.65 636.945 1432.57 637.401 1432.96C653.533 1443.71 669.669 1454.45 685.801 1465.19C694.253 1487.26 702.653 1509.37 711.001 1531.52C661.581 1564.34 612.249 1597.28 563.001 1630.34ZM530.201 1629.8C530.177 1630.09 530.045 1630.27 529.801 1630.34C480.333 1597.4 430.869 1564.46 381.401 1531.52C389.717 1509.63 397.985 1487.7 406.201 1465.73C422.405 1454.67 438.673 1443.75 455.001 1432.96C455.457 1432.57 455.857 1432.65 456.201 1433.23C480.777 1498.87 505.445 1564.39 530.201 1629.8ZM216.201 1630.34C215.985 1630.3 215.849 1630.13 215.801 1629.8C240.441 1564.34 264.977 1498.82 289.401 1433.23C289.745 1432.65 290.145 1432.57 290.601 1432.96C306.733 1443.71 322.869 1454.45 339.001 1465.19C347.453 1487.26 355.853 1509.37 364.201 1531.52C314.781 1564.34 265.449 1597.28 216.201 1630.34ZM183.401 1629.8C183.377 1630.09 183.245 1630.27 183.001 1630.34C133.533 1597.4 84.0691 1564.46 34.6012 1531.52C42.9171 1509.63 51.1852 1487.7 59.4011 1465.73C75.6051 1454.67 91.8732 1443.75 108.201 1432.96C108.657 1432.57 109.057 1432.65 109.401 1433.23C133.977 1498.87 158.645 1564.39 183.401 1629.8ZM719.801 1515.8C711.909 1495.32 704.109 1474.72 696.401 1454.01C695.801 1453.21 695.201 1452.41 694.601 1451.61C679.133 1441.31 663.669 1431.01 648.201 1420.71C663.669 1410.41 679.133 1400.11 694.601 1389.82C695.201 1389.02 695.801 1388.22 696.401 1387.42C704.133 1366.82 711.869 1346.22 719.601 1325.62C727.333 1346.22 735.069 1366.82 742.801 1387.42C743.401 1388.22 744.001 1389.02 744.601 1389.82C760.069 1400.11 775.533 1410.41 791.001 1420.71C775.801 1430.83 760.601 1440.96 745.401 1451.08C744.557 1451.68 743.825 1452.48 743.201 1453.47C735.185 1474.11 727.385 1494.89 719.801 1515.8ZM373.001 1515.8C365.109 1495.32 357.309 1474.72 349.601 1454.01C349.001 1453.21 348.401 1452.41 347.801 1451.61C332.333 1441.31 316.869 1431.01 301.401 1420.71C316.869 1410.41 332.333 1400.11 347.801 1389.82C348.401 1389.02 349.001 1388.22 349.601 1387.42C357.333 1366.82 365.069 1346.22 372.801 1325.62C380.533 1346.22 388.269 1366.82 396.001 1387.42C396.601 1388.22 397.201 1389.02 397.801 1389.82C413.269 1400.11 428.733 1410.41 444.201 1420.71C429.001 1430.83 413.801 1440.96 398.601 1451.08C397.757 1451.68 397.025 1452.48 396.401 1453.47C388.385 1474.11 380.585 1494.89 373.001 1515.8ZM1066.6 1515.27C1066.25 1515.34 1065.98 1515.16 1065.8 1514.74C1058.06 1493.66 1050.06 1472.8 1041.8 1452.14C1026.14 1441.8 1010.54 1431.33 995.001 1420.71C1010.67 1410.37 1026.27 1399.9 1041.8 1389.28C1042.13 1388.84 1042.47 1388.39 1042.8 1387.95C1050.5 1367.27 1058.3 1346.67 1066.2 1326.16C1073.97 1346.31 1081.64 1366.56 1089.2 1386.89C1089.62 1387.73 1090.09 1388.53 1090.6 1389.28C1106.33 1399.76 1122.07 1410.24 1137.8 1420.71C1122.01 1431.14 1106.27 1441.71 1090.6 1452.41C1082.18 1473.06 1074.18 1494.01 1066.6 1515.27ZM1330.2 1409.26C1305.14 1343.39 1280.4 1277.33 1256 1211.09C1305.51 1244.01 1354.91 1277.12 1404.2 1310.44C1396.12 1332.23 1387.99 1353.98 1379.8 1375.7C1363.24 1386.9 1346.71 1398.09 1330.2 1409.26ZM1149.4 1409.26C1133.01 1398.35 1116.61 1387.42 1100.2 1376.5C1091.7 1354.56 1083.3 1332.54 1075 1310.44C1124.35 1277.14 1173.82 1244.28 1223.4 1211.89C1198.57 1277.58 1173.9 1343.37 1149.4 1409.26ZM983.401 1409.26C958.337 1343.39 933.605 1277.33 909.201 1211.09C958.705 1244.01 1008.11 1277.12 1057.4 1310.44C1049.32 1332.23 1041.19 1353.98 1033 1375.7C1016.45 1386.9 999.909 1398.09 983.401 1409.26ZM876.601 1211.62C852.181 1277.2 827.649 1342.72 803.001 1408.19C802.657 1408.77 802.257 1408.86 801.801 1408.46C785.669 1397.72 769.533 1386.97 753.401 1376.23C745.097 1354.65 736.897 1332.99 728.801 1311.24C728.501 1310.63 728.569 1310.1 729.001 1309.64C778.161 1276.82 827.361 1244.14 876.601 1211.62ZM562.601 1211.62C612.169 1244.28 661.637 1277.22 711.001 1310.44C702.749 1332.15 694.549 1353.9 686.401 1375.7C670.097 1386.69 653.765 1397.61 637.401 1408.46C636.945 1408.86 636.545 1408.77 636.201 1408.19C611.553 1342.72 587.021 1277.2 562.601 1211.62ZM529.801 1211.62C505.381 1277.2 480.849 1342.72 456.201 1408.19C455.857 1408.77 455.457 1408.86 455.001 1408.46C438.869 1397.72 422.733 1386.97 406.601 1376.23C398.297 1354.65 390.097 1332.99 382.001 1311.24C381.701 1310.63 381.769 1310.1 382.201 1309.64C431.361 1276.82 480.561 1244.14 529.801 1211.62ZM215.801 1211.62C265.369 1244.28 314.837 1277.22 364.201 1310.44C355.949 1332.15 347.749 1353.9 339.601 1375.7C323.297 1386.69 306.965 1397.61 290.601 1408.46C290.145 1408.86 289.745 1408.77 289.401 1408.19C264.753 1342.72 240.221 1277.2 215.801 1211.62ZM183.001 1211.62C158.581 1277.2 134.049 1342.72 109.401 1408.19C109.057 1408.77 108.657 1408.86 108.201 1408.46C92.0691 1397.72 75.9331 1386.97 59.8011 1376.23C51.4972 1354.65 43.2971 1332.99 35.2012 1311.24C34.9011 1310.63 34.9691 1310.1 35.4011 1309.64C84.5612 1276.82 133.761 1244.14 183.001 1211.62ZM1067 1296.32C1066.45 1296.41 1065.92 1296.32 1065.4 1296.06C1012.33 1260.72 959.269 1225.38 906.201 1190.05C959.473 1154.31 1012.81 1118.71 1066.2 1083.24C1119.6 1118.71 1172.93 1154.31 1226.2 1190.05C1173.05 1225.35 1119.98 1260.78 1067 1296.32ZM720.601 1296.32C720.053 1296.41 719.517 1296.32 719.001 1296.06C665.933 1260.72 612.869 1225.38 559.801 1190.05C612.745 1154.26 665.809 1118.75 719.001 1083.51C719.401 1083.15 719.801 1083.15 720.201 1083.51C773.465 1118.88 826.665 1154.4 879.801 1190.05C826.649 1225.35 773.581 1260.78 720.601 1296.32ZM373.801 1296.32C373.253 1296.41 372.717 1296.32 372.201 1296.06C319.133 1260.72 266.069 1225.38 213.001 1190.05C265.945 1154.26 319.009 1118.75 372.201 1083.51C372.601 1083.15 373.001 1083.15 373.401 1083.51C426.665 1118.88 479.865 1154.4 533.001 1190.05C479.849 1225.35 426.781 1260.78 373.801 1296.32ZM1239.8 1172.73C1213.07 1101.45 1186.27 1030.15 1159.4 958.85C1186.19 887.776 1212.92 816.659 1239.6 745.499C1266.33 816.707 1293.07 887.909 1319.8 959.117C1293.02 1030.27 1266.35 1101.47 1239.8 1172.73ZM893.001 1172.2C866.297 1101.16 839.633 1030.05 813.001 958.85C839.545 887.877 866.145 816.936 892.801 746.031C919.637 816.978 946.369 888.005 973.001 959.117C946.329 1030.16 919.661 1101.19 893.001 1172.2ZM546.601 1172.2C519.573 1101.37 492.773 1030.25 466.201 958.85C492.713 887.797 519.377 816.856 546.201 746.031C573.081 816.914 599.745 887.941 626.201 959.117C599.665 1030.15 573.129 1101.18 546.601 1172.2ZM199.801 1172.2C172.773 1101.37 145.973 1030.25 119.401 958.85C145.913 887.797 172.577 816.856 199.401 746.031C226.281 816.914 252.945 887.941 279.401 959.117C252.865 1030.15 226.329 1101.18 199.801 1172.2ZM1256.6 1168.47C1256.31 1168.54 1256.04 1168.45 1255.8 1168.21C1280.35 1102.21 1305.15 1036.42 1330.2 970.836C1346.6 981.757 1363 992.678 1379.4 1003.6C1387.72 1025.49 1395.99 1047.42 1404.2 1069.39C1354.91 1102.29 1305.71 1135.32 1256.6 1168.47ZM1223.4 1168.47C1173.89 1135.59 1124.43 1102.57 1075 1069.39C1083.2 1047.55 1091.4 1025.71 1099.6 1003.86C1116.12 992.555 1132.72 981.634 1149.4 971.103C1174.23 1036.8 1198.9 1102.59 1223.4 1168.47ZM909.801 1168.47C909.505 1168.54 909.237 1168.45 909.001 1168.21C933.545 1102.21 958.345 1036.42 983.401 970.836C999.801 981.757 1016.2 992.678 1032.6 1003.6C1040.92 1025.49 1049.19 1047.42 1057.4 1069.39C1008.11 1102.29 958.913 1135.32 909.801 1168.47ZM877.001 1167.94C876.977 1168.23 876.845 1168.41 876.601 1168.47C827.465 1135.49 778.265 1102.63 729.001 1069.92C728.569 1069.46 728.501 1068.93 728.801 1068.32C736.869 1046.84 744.933 1025.35 753.001 1003.86C769.205 992.805 785.473 981.885 801.801 971.103C802.257 970.703 802.657 970.794 803.001 971.369C827.577 1037.01 852.245 1102.53 877.001 1167.94ZM563.001 1168.47C562.785 1168.44 562.649 1168.27 562.601 1167.94C587.025 1102.35 611.561 1036.83 636.201 971.369C636.545 970.794 636.945 970.703 637.401 971.103C653.533 981.848 669.669 992.587 685.801 1003.33C694.253 1025.4 702.653 1047.5 711.001 1069.65C661.581 1102.48 612.249 1135.41 563.001 1168.47ZM530.201 1167.94C530.177 1168.23 530.045 1168.41 529.801 1168.47C480.665 1135.49 431.465 1102.63 382.201 1069.92C381.769 1069.46 381.701 1068.93 382.001 1068.32C390.069 1046.84 398.133 1025.35 406.201 1003.86C422.405 992.805 438.673 981.885 455.001 971.103C455.457 970.703 455.857 970.794 456.201 971.369C480.777 1037.01 505.445 1102.53 530.201 1167.94ZM216.201 1168.47C215.985 1168.44 215.849 1168.27 215.801 1167.94C240.225 1102.35 264.761 1036.83 289.401 971.369C289.745 970.794 290.145 970.703 290.601 971.103C306.733 981.848 322.869 992.587 339.001 1003.33C347.453 1025.4 355.853 1047.5 364.201 1069.65C314.781 1102.48 265.449 1135.41 216.201 1168.47ZM183.401 1167.94C183.377 1168.23 183.245 1168.41 183.001 1168.47C133.865 1135.49 84.6652 1102.63 35.4011 1069.92C34.9691 1069.46 34.9011 1068.93 35.2012 1068.32C43.2692 1046.84 51.3331 1025.35 59.4011 1003.86C75.6051 992.805 91.8732 981.885 108.201 971.103C108.657 970.703 109.057 970.794 109.401 971.369C133.977 1037.01 158.645 1102.53 183.401 1167.94ZM1066.6 1053.94C1058.43 1032.97 1050.3 1011.93 1042.2 990.813C1026.47 980.159 1010.73 969.505 995.001 958.85C1010.47 948.553 1025.93 938.25 1041.4 927.953C1041.87 927.33 1042.33 926.712 1042.8 926.089C1050.5 905.409 1058.3 884.809 1066.2 864.294C1074.1 884.809 1081.9 905.409 1089.6 926.089C1089.93 926.531 1090.27 926.978 1090.6 927.42C1106.14 938.032 1121.74 948.51 1137.4 958.85C1122.13 969.286 1106.8 979.584 1091.4 989.748C1090.8 990.547 1090.2 991.346 1089.6 992.145C1081.82 1012.69 1074.15 1033.29 1066.6 1053.94ZM719.801 1053.94C711.909 1033.46 704.109 1012.86 696.401 992.145C695.933 991.522 695.469 990.904 695.001 990.28C679.337 979.94 663.737 969.462 648.201 958.85C663.933 948.372 679.669 937.899 695.401 927.42C703.621 906.325 711.689 885.107 719.601 863.761C727.333 884.361 735.069 904.956 742.801 925.556C743.401 926.355 744.001 927.154 744.601 927.953C760.069 938.25 775.533 948.553 791.001 958.85C775.465 969.462 759.865 979.94 744.201 990.28C735.805 1011.31 727.673 1032.52 719.801 1053.94ZM373.001 1053.94C365.109 1033.46 357.309 1012.86 349.601 992.145C349.133 991.522 348.669 990.904 348.201 990.28C332.537 979.94 316.937 969.462 301.401 958.85C317.133 948.372 332.869 937.899 348.601 927.42C356.821 906.325 364.889 885.107 372.801 863.761C380.533 884.361 388.269 904.956 396.001 925.556C396.601 926.355 397.201 927.154 397.801 927.953C413.269 938.25 428.733 948.553 444.201 958.85C428.665 969.462 413.065 979.94 397.401 990.28C389.005 1011.31 380.873 1032.52 373.001 1053.94ZM1330.2 947.397C1305.36 881.682 1280.56 815.891 1255.8 750.027C1305.29 782.4 1354.69 815.162 1404 848.312C1396.18 870.223 1388.11 892.064 1379.8 913.836C1363.24 925.039 1346.71 936.226 1330.2 947.397ZM1223.4 749.76C1198.88 815.774 1174.15 881.655 1149.2 947.397C1132.9 936.407 1116.57 925.487 1100.2 914.635C1091.7 892.698 1083.3 870.681 1075 848.579C1124.37 815.354 1173.83 782.416 1223.4 749.76ZM983.401 947.397C958.561 881.682 933.761 815.891 909.001 750.027C958.485 782.4 1007.89 815.162 1057.2 848.312C1049.38 870.223 1041.31 892.064 1033 913.836C1016.45 925.039 999.909 936.226 983.401 947.397ZM803.001 947.397C786.429 936.626 769.893 925.705 753.401 914.635C745.085 892.746 736.817 870.814 728.601 848.845C777.797 815.556 827.129 782.528 876.601 749.76C876.733 749.851 876.869 749.936 877.001 750.027C852.169 815.721 827.505 881.511 803.001 947.397ZM562.601 749.76C612.169 782.416 661.637 815.354 711.001 848.579C702.749 870.292 694.549 892.043 686.401 913.836C669.929 925.162 653.397 936.349 636.801 947.397C611.853 881.655 587.121 815.774 562.601 749.76ZM456.201 947.397C439.629 936.626 423.093 925.705 406.601 914.635C398.285 892.746 390.017 870.814 381.801 848.845C430.997 815.556 480.329 782.528 529.801 749.76C529.933 749.851 530.069 749.936 530.201 750.027C505.369 815.721 480.705 881.511 456.201 947.397ZM215.801 749.76C265.369 782.416 314.837 815.354 364.201 848.579C355.949 870.292 347.749 892.043 339.601 913.836C323.129 925.162 306.597 936.349 290.001 947.397C265.053 881.655 240.321 815.774 215.801 749.76ZM109.401 947.397C92.8291 936.626 76.2931 925.705 59.8011 914.635C51.4851 892.746 43.2172 870.814 35.0011 848.845C84.1971 815.556 133.529 782.528 183.001 749.76C183.133 749.851 183.269 749.936 183.401 750.027C158.569 815.721 133.905 881.511 109.401 947.397ZM719.801 834.995C666.345 799.399 612.877 763.797 559.401 728.186C612.833 692.648 666.233 657.047 719.601 621.377C772.969 657.047 826.369 692.648 879.801 728.186C826.381 763.67 773.049 799.271 719.801 834.995ZM373.001 834.995C319.545 799.399 266.077 763.797 212.601 728.186C266.033 692.648 319.433 657.047 372.801 621.377C426.169 657.047 479.569 692.648 533.001 728.186C479.581 763.67 426.249 799.271 373.001 834.995ZM1067 834.462C1066.45 834.547 1065.92 834.457 1065.4 834.196C1012.33 798.861 959.269 763.521 906.201 728.186C959.269 692.851 1012.33 657.511 1065.4 622.176C1065.93 621.819 1066.47 621.819 1067 622.176C1120.07 657.511 1173.13 692.851 1226.2 728.186C1173.05 763.489 1119.98 798.914 1067 834.462ZM1239.8 710.872C1212.85 639.718 1186.05 568.425 1159.4 496.988C1186.19 425.914 1212.92 354.797 1239.6 283.637C1266.33 354.844 1293.07 426.047 1319.8 497.255C1293.02 568.404 1266.35 639.611 1239.8 710.872ZM893.001 710.34C866.081 639.436 839.413 568.318 813.001 496.988C839.545 426.015 866.145 355.073 892.801 284.169C919.637 355.116 946.369 426.143 973.001 497.255C946.329 568.297 919.661 639.324 893.001 710.34ZM546.601 710.34C546.249 710.409 545.985 710.233 545.801 709.807C519.105 638.967 492.573 568.026 466.201 496.988C492.713 425.935 519.377 354.994 546.201 284.169C573.081 355.052 599.745 426.079 626.201 497.255C599.665 568.292 573.129 639.318 546.601 710.34ZM199.801 710.34C199.449 710.409 199.185 710.233 199.001 709.807C172.305 638.967 145.773 568.026 119.401 496.988C145.913 425.935 172.577 354.994 199.401 284.169C226.281 355.052 252.945 426.079 279.401 497.255C252.865 568.292 226.329 639.318 199.801 710.34ZM1256.6 706.611C1256.31 706.68 1256.04 706.589 1255.8 706.344C1280.55 640.512 1305.35 574.722 1330.2 508.974C1346.6 519.895 1363 530.816 1379.4 541.736C1387.89 563.732 1396.09 585.839 1404 608.059C1354.81 640.858 1305.68 673.71 1256.6 706.611ZM1223.4 706.611C1173.83 673.955 1124.37 641.018 1075 607.792C1083.36 585.967 1091.56 564.041 1099.6 542.002C1116.12 530.693 1132.72 519.772 1149.4 509.241C1174.23 574.935 1198.9 640.725 1223.4 706.611ZM909.801 706.611C909.505 706.68 909.237 706.589 909.001 706.344C933.749 640.512 958.549 574.722 983.401 508.974C999.801 519.895 1016.2 530.816 1032.6 541.736C1041.09 563.732 1049.29 585.839 1057.2 608.059C1008.01 640.858 958.877 673.71 909.801 706.611ZM877.001 706.078C876.977 706.366 876.845 706.547 876.601 706.611C827.129 673.844 777.797 640.815 728.601 607.526C736.777 585.93 744.841 564.265 752.801 542.535C769.309 531.146 785.909 519.959 802.601 508.974C827.413 574.706 852.213 640.411 877.001 706.078ZM562.601 706.611C587.121 640.597 611.853 574.716 636.801 508.974C653.105 519.964 669.437 530.885 685.801 541.736C694.305 563.673 702.705 585.69 711.001 607.792C661.637 641.018 612.169 673.955 562.601 706.611ZM530.201 706.078C530.177 706.366 530.045 706.547 529.801 706.611C480.329 673.844 430.997 640.815 381.801 607.526C389.977 585.93 398.041 564.265 406.001 542.535C422.509 531.146 439.109 519.959 455.801 508.974C480.613 574.706 505.413 640.411 530.201 706.078ZM215.801 706.611C240.321 640.597 265.053 574.716 290.001 508.974C306.305 519.964 322.637 530.885 339.001 541.736C347.505 563.673 355.905 585.69 364.201 607.792C314.837 641.018 265.369 673.955 215.801 706.611ZM183.401 706.078C183.377 706.366 183.245 706.547 183.001 706.611C133.529 673.844 84.1971 640.815 35.0011 607.526C43.1771 585.93 51.2412 564.265 59.2012 542.535C75.7091 531.146 92.3092 519.959 109.001 508.974C133.813 574.706 158.613 640.411 183.401 706.078ZM719.801 592.61C711.833 571.717 703.901 550.766 696.001 529.75C695.669 529.308 695.333 528.86 695.001 528.418C679.473 518.169 664.005 507.781 648.601 497.255C663.737 486.909 678.937 476.697 694.201 466.624C694.837 466.064 695.437 465.446 696.001 464.759C703.969 444.068 711.837 423.293 719.601 402.432C727.533 423.208 735.469 443.983 743.401 464.759C743.993 465.281 744.525 465.904 745.001 466.624C760.265 476.697 775.465 486.909 790.601 497.255C775.465 507.6 760.265 517.812 745.001 527.886C744.365 528.445 743.765 529.063 743.201 529.75C735.289 550.648 727.489 571.605 719.801 592.61ZM373.001 592.61C365.033 571.717 357.101 550.766 349.201 529.75C348.869 529.308 348.533 528.86 348.201 528.418C332.673 518.169 317.205 507.781 301.801 497.255C316.937 486.909 332.137 476.697 347.401 466.624C348.037 466.064 348.637 465.446 349.201 464.759C357.169 444.068 365.037 423.293 372.801 402.432C380.733 423.208 388.669 443.983 396.601 464.759C397.193 465.281 397.725 465.904 398.201 466.624C413.465 476.697 428.665 486.909 443.801 497.255C428.665 507.6 413.465 517.812 398.201 527.886C397.565 528.445 396.965 529.063 396.401 529.75C388.489 550.648 380.689 571.605 373.001 592.61ZM1066.6 592.078C1066.25 592.147 1065.98 591.971 1065.8 591.545C1058.16 571.366 1050.63 551.123 1043.2 530.816C1042.47 529.841 1041.73 528.86 1041 527.886C1025.61 517.721 1010.27 507.424 995.001 496.988C1010.47 486.691 1025.93 476.388 1041.4 466.091C1042.28 465.095 1043.02 463.939 1043.6 462.628C1051.1 442.481 1058.7 422.414 1066.4 402.432C1074.13 423.032 1081.87 443.626 1089.6 464.226C1090.07 464.85 1090.53 465.468 1091 466.091C1106.53 476.34 1122 486.728 1137.4 497.255C1122 507.781 1106.53 518.169 1091 528.418C1090.53 529.042 1090.07 529.66 1089.6 530.283C1081.82 550.83 1074.15 571.424 1066.6 592.078ZM1330.6 485.535C1330.25 485.604 1329.98 485.428 1329.8 485.002C1305.19 419.351 1280.52 353.736 1255.8 288.165C1305.29 320.538 1354.69 353.3 1404 386.45C1396.11 408.542 1387.98 430.559 1379.6 452.507C1363.21 463.465 1346.88 474.476 1330.6 485.535ZM1223.4 287.898C1198.88 353.912 1174.15 419.793 1149.2 485.535C1132.9 474.545 1116.57 463.624 1100.2 452.773C1091.7 430.836 1083.3 408.819 1075 386.717C1124.37 353.491 1173.83 320.554 1223.4 287.898ZM983.801 485.535C983.449 485.604 983.185 485.428 983.001 485.002C958.385 419.351 933.717 353.736 909.001 288.165C958.485 320.538 1007.89 353.3 1057.2 386.45C1049.31 408.542 1041.18 430.559 1032.8 452.507C1016.41 463.465 1000.08 474.476 983.801 485.535ZM803.001 485.535C786.429 474.763 769.893 463.843 753.401 452.773C745.085 430.884 736.817 408.952 728.601 386.983C777.797 353.694 827.129 320.666 876.601 287.898C876.733 287.989 876.869 288.074 877.001 288.165C852.169 353.859 827.505 419.649 803.001 485.535ZM637.001 485.535C611.837 419.926 587.101 354.045 562.801 287.898C612.169 320.905 661.569 353.843 711.001 386.717C702.749 408.43 694.549 430.181 686.401 451.974C669.941 463.246 653.473 474.433 637.001 485.535ZM456.201 485.535C439.629 474.763 423.093 463.843 406.601 452.773C398.285 430.884 390.017 408.952 381.801 386.983C430.997 353.694 480.329 320.666 529.801 287.898C529.933 287.989 530.069 288.074 530.201 288.165C505.369 353.859 480.705 419.649 456.201 485.535ZM290.201 485.535C265.037 419.926 240.301 354.045 216.001 287.898C265.369 320.905 314.769 353.843 364.201 386.717C355.949 408.43 347.749 430.181 339.601 451.974C323.141 463.246 306.673 474.433 290.201 485.535ZM109.401 485.535C92.8291 474.763 76.2931 463.843 59.8011 452.773C51.4851 430.884 43.2172 408.952 35.0011 386.983C84.1971 353.694 133.529 320.666 183.001 287.898C183.133 287.989 183.269 288.074 183.401 288.165C158.569 353.859 133.905 419.649 109.401 485.535ZM1066.6 373.132C1013.15 337.537 959.677 301.935 906.201 266.323C959.633 230.786 1013.03 195.185 1066.4 159.515C1119.57 195.324 1172.84 230.925 1226.2 266.323C1172.98 301.941 1119.78 337.547 1066.6 373.132ZM719.801 373.132C666.417 337.675 613.081 302.069 559.801 266.323C613.161 230.925 666.429 195.324 719.601 159.515C772.773 195.324 826.041 230.925 879.401 266.323C826.177 301.941 772.977 337.547 719.801 373.132ZM373.001 373.132C319.617 337.675 266.281 302.069 213.001 266.323C266.361 230.925 319.629 195.324 372.801 159.515C425.973 195.324 479.241 230.925 532.601 266.323C479.377 301.941 426.177 337.547 373.001 373.132ZM1256.2 245.281C1255.98 245.249 1255.85 245.074 1255.8 244.749C1280.5 178.788 1305.3 112.908 1330.2 47.1122C1346.6 58.0328 1363 68.9534 1379.4 79.874C1387.89 101.87 1396.09 123.977 1404 146.197C1354.74 179.31 1305.47 212.338 1256.2 245.281ZM909.401 245.281C909.185 245.249 909.049 245.074 909.001 244.749C933.697 178.788 958.497 112.908 983.401 47.1122C999.801 58.0328 1016.2 68.9534 1032.6 79.874C1041.09 101.87 1049.29 123.977 1057.2 146.197C1007.94 179.31 958.673 212.338 909.401 245.281ZM1223.4 244.216C1223.38 244.504 1223.24 244.685 1223 244.749C1173.61 211.944 1124.27 179.007 1075 145.93C1083.25 124.217 1091.45 102.466 1099.6 80.6731C1116.07 69.3477 1132.61 58.1606 1149.2 47.1122C1174.06 112.78 1198.79 178.479 1223.4 244.216ZM876.601 244.749C827.201 212.253 777.933 179.401 728.801 146.197C736.709 123.977 744.909 101.87 753.401 79.874C769.801 68.9534 786.201 58.0328 802.601 47.1122C827.593 112.79 852.257 178.666 876.601 244.749ZM562.601 244.749C587.121 178.735 611.853 112.854 636.801 47.1122C653.105 58.1021 669.437 69.0227 685.801 79.874C694.305 101.811 702.705 123.828 711.001 145.93C661.637 179.156 612.169 212.093 562.601 244.749ZM529.801 244.749C480.401 212.253 431.133 179.401 382.001 146.197C389.909 123.977 398.109 101.87 406.601 79.874C423.001 68.9534 439.401 58.0328 455.801 47.1122C480.793 112.79 505.457 178.666 529.801 244.749ZM215.801 244.749C240.321 178.735 265.053 112.854 290.001 47.1122C306.305 58.1021 322.637 69.0227 339.001 79.874C347.505 101.811 355.905 123.828 364.201 145.93C314.837 179.156 265.369 212.093 215.801 244.749ZM183.001 244.749C133.601 212.253 84.3331 179.401 35.2012 146.197C43.1091 123.977 51.3092 101.87 59.8011 79.874C76.2012 68.9534 92.6012 58.0328 109.001 47.1122C133.993 112.79 158.657 178.666 183.001 244.749Z" fill="#9B7B36"/>
</svg>
