<svg width="56" height="56" viewBox="0 0 56 56" fill="none" xmlns="http://www.w3.org/2000/svg">
<g clip-path="url(#clip0_345_747)">
<path d="M56 36.2194C56 47.1484 47.1484 56 36.2194 56H19.7806C8.85161 56 0 47.1484 0 36.2194V19.7806C0 8.85161 8.85161 0 19.7806 0H36.2194C47.1484 0 56 8.85161 56 19.7806V36.2194Z" fill="#2D5575"/>
<path d="M0 19.7806C0 8.85161 8.85161 0 19.7806 0H36.2194C47.1484 0 56 8.85161 56 19.7806V36.2194C56 47.1484 47.1484 56 36.2194 56" fill="#1F435F"/>
<path d="M36.2188 0C47.1478 0 55.9994 8.85161 55.9994 19.7806V36.2194C55.9994 47.1484 47.1478 56 36.2188 56" fill="#092E47"/>
<path d="M29.8965 29.6257L37.4836 22.0386C38.0255 21.4966 38.0255 20.6837 37.4836 20.1418C36.9416 19.5999 36.1287 19.5999 35.5868 20.1418L27.9997 27.7289L20.4126 20.1418C19.8707 19.5999 19.0578 19.5999 18.5158 20.1418C17.9739 20.6837 17.9739 21.4966 18.5158 22.0386L26.1029 29.6257L18.5158 37.2128C17.9739 37.7547 17.9739 38.5676 18.5158 39.1095C18.7868 39.3805 19.1481 39.4708 19.4191 39.4708C19.69 39.4708 20.0513 39.3805 20.3223 39.1095L27.9094 31.5224L35.4965 39.1095C35.7674 39.3805 36.1287 39.4708 36.3997 39.4708C36.6707 39.4708 37.032 39.3805 37.3029 39.1095C37.8449 38.5676 37.8449 37.7547 37.3029 37.2128L29.8965 29.6257Z" fill="#092E47"/>
<path d="M29.8965 27.9997L37.4836 20.4126C38.0255 19.8707 38.0255 19.0578 37.4836 18.5158C36.9416 17.9739 36.1287 17.9739 35.5868 18.5158L27.9997 26.1029L20.4126 18.5158C19.8707 17.9739 19.0578 17.9739 18.5158 18.5158C17.9739 19.0578 17.9739 19.8707 18.5158 20.4126L26.1029 27.9997L18.5158 35.5868C17.9739 36.1287 17.9739 36.9416 18.5158 37.4836C18.7868 37.7545 19.1481 37.8449 19.4191 37.8449C19.69 37.8449 20.0513 37.7545 20.3223 37.4836L27.9094 29.8965L35.4965 37.4836C35.7674 37.7545 36.1287 37.8449 36.3997 37.8449C36.6707 37.8449 37.032 37.7545 37.3029 37.4836C37.8449 36.9416 37.8449 36.1287 37.3029 35.5868L29.8965 27.9997Z" fill="white"/>
</g>
<defs>
<clipPath id="clip0_345_747">
<rect width="56" height="56" fill="white"/>
</clipPath>
</defs>
</svg>
