<svg width="32" height="33" viewBox="0 0 32 33" fill="none" xmlns="http://www.w3.org/2000/svg">
<path d="M24.8175 0.824707H7.18254C3.21573 0.824707 0 4.04044 0 8.00725V25.6422C0 29.609 3.21573 32.8247 7.18254 32.8247H24.8175C28.7843 32.8247 32 29.609 32 25.6422V8.00725C32 4.04044 28.7843 0.824707 24.8175 0.824707Z" fill="#4C76BE"/>
<path fill-rule="evenodd" clip-rule="evenodd" d="M18.6885 11.122H20.5173V8.31774C20.2292 8.31774 19.9299 8.25124 19.6306 8.22907H17.9791C17.1476 8.22432 16.3348 8.47589 15.6514 8.94954C15.2729 9.22359 14.9533 9.57082 14.7115 9.97065C14.4697 10.3705 14.3106 10.8148 14.2437 11.2772C14.1812 11.6733 14.1479 12.0734 14.1439 12.4743V14.5914H11.4727V17.706H14.1329V25.5425H17.3805V17.695H20.0296L20.4398 14.5581H17.3584V12.3413C17.4138 11.4213 17.9569 11.1442 18.6885 11.122Z" fill="white"/>
</svg>
