<svg width="32" height="33" viewBox="0 0 32 33" fill="none" xmlns="http://www.w3.org/2000/svg">
<path d="M24.8997 32.8078L7.13135 32.8247C3.2223 32.8283 0.0213251 29.6335 0.016883 25.7245L2.96183e-06 7.95606C-0.00355072 4.04701 3.19121 0.846032 7.10025 0.84159L24.8686 0.82471C28.7777 0.821156 31.9787 4.01591 31.9831 7.92496L32 25.6934C32.0044 29.6033 28.8088 32.8043 24.8997 32.8078Z" fill="url(#paint0_radial_121_289)"/>
<path d="M24.8997 32.8078L7.13135 32.8247C3.2223 32.8283 0.0213251 29.6335 0.016883 25.7245L2.96183e-06 7.95606C-0.00355072 4.04701 3.19121 0.846032 7.10025 0.84159L24.8686 0.82471C28.7777 0.821156 31.9787 4.01591 31.9831 7.92496L32 25.6934C32.0044 29.6033 28.8088 32.8043 24.8997 32.8078Z" fill="url(#paint1_radial_121_289)"/>
<path d="M16.0002 23.0438C12.5718 23.0438 9.78125 20.2542 9.78125 16.8249C9.78125 13.3956 12.5718 10.606 16.0002 10.606C19.4286 10.606 22.2191 13.3956 22.2191 16.8249C22.2191 20.2542 19.4286 23.0438 16.0002 23.0438ZM16.0002 12.3828C13.5508 12.3828 11.5581 14.3755 11.5581 16.8249C11.5581 19.2743 13.5508 21.267 16.0002 21.267C18.4496 21.267 20.4423 19.2743 20.4423 16.8249C20.4423 14.3755 18.4496 12.3828 16.0002 12.3828Z" fill="white"/>
<path d="M22.6647 11.4944C23.4007 11.4944 23.9973 10.8977 23.9973 10.1617C23.9973 9.42574 23.4007 8.8291 22.6647 8.8291C21.9287 8.8291 21.332 9.42574 21.332 10.1617C21.332 10.8977 21.9287 11.4944 22.6647 11.4944Z" fill="white"/>
<path d="M21.3311 28.3743H10.6701C7.2417 28.3743 4.45117 25.5847 4.45117 22.1554V11.4943C4.45117 8.06503 7.2417 5.27539 10.6701 5.27539H21.3311C24.7596 5.27539 27.5501 8.06503 27.5501 11.4943V22.1554C27.5501 25.5847 24.7596 28.3743 21.3311 28.3743ZM10.6701 7.05223C8.22074 7.05223 6.22801 9.04496 6.22801 11.4943V22.1554C6.22801 24.6047 8.22074 26.5975 10.6701 26.5975H21.3311C23.7805 26.5975 25.7732 24.6047 25.7732 22.1554V11.4943C25.7732 9.04496 23.7805 7.05223 21.3311 7.05223H10.6701Z" fill="white"/>
<defs>
<radialGradient id="paint0_radial_121_289" cx="0" cy="0" r="1" gradientUnits="userSpaceOnUse" gradientTransform="translate(11.8959 32.8478) scale(39.8892 39.8892)">
<stop stop-color="#FFDD55"/>
<stop offset="0.328" stop-color="#FF543F"/>
<stop offset="0.348" stop-color="#FC5245"/>
<stop offset="0.504" stop-color="#E64771"/>
<stop offset="0.643" stop-color="#D53E91"/>
<stop offset="0.761" stop-color="#CC39A4"/>
<stop offset="0.841" stop-color="#C837AB"/>
</radialGradient>
<radialGradient id="paint1_radial_121_289" cx="0" cy="0" r="1" gradientUnits="userSpaceOnUse" gradientTransform="translate(5.14928 0.42519) scale(26.4865 17.6479)">
<stop stop-color="#4168C9"/>
<stop offset="0.999" stop-color="#4168C9" stop-opacity="0"/>
</radialGradient>
</defs>
</svg>
