<svg width="312" height="17" viewBox="0 0 312 17" fill="none" xmlns="http://www.w3.org/2000/svg">
<path fill-rule="evenodd" clip-rule="evenodd" d="M164.598 9.33518C164.625 9.06041 164.639 8.78181 164.639 8.5C164.639 3.80558 160.771 0 156 0C151.229 0 147.361 3.80558 147.361 8.5C147.361 8.78181 147.375 9.06041 147.402 9.33518H143.905C143.897 6.05589 141.193 3.39998 137.858 3.39998C134.523 3.39998 131.819 6.05589 131.811 9.33518H124.946L118.914 3.39998L112.882 9.33518H107.509C107.12 7.87624 105.771 6.79996 104.166 6.79996C102.562 6.79996 101.213 7.87624 100.824 9.33518H0.5V10.2001H100.711C100.711 12.0778 102.258 13.6 104.166 13.6C106.075 13.6 107.622 12.0778 107.622 10.2001H113.608L118.914 15.4208L124.22 10.2001H131.872C132.292 13.0835 134.812 15.3 137.858 15.3C140.905 15.3 143.425 13.0835 143.844 10.2001H147.534C148.334 14.0798 151.82 17 156 17C160.179 17 163.665 14.0798 164.466 10.2001H168.155C168.575 13.0835 171.095 15.3 174.141 15.3C177.188 15.3 179.708 13.0835 180.127 10.2001L187.902 10.2L193.208 15.4208L198.514 10.2L204.378 10.2C204.378 12.0777 205.925 13.6 207.833 13.6C209.742 13.6 211.289 12.0777 211.289 10.2L311.5 10.2001V9.33518H211.176C210.787 7.87624 209.438 6.79996 207.833 6.79996C206.229 6.79996 204.879 7.87624 204.491 9.33518H199.24L193.208 3.39998L187.176 9.33518H180.189C180.181 6.05589 177.476 3.39998 174.141 3.39998C170.807 3.39998 168.102 6.05589 168.094 9.33518H164.598Z" fill="#9B7B36"/>
</svg>
