<svg width="32" height="33" viewBox="0 0 32 33" fill="none" xmlns="http://www.w3.org/2000/svg">
<path d="M22.4267 28.5154L5.00408 6.11537C4.91225 5.99712 4.85545 5.85547 4.84013 5.70653C4.82482 5.5576 4.85161 5.40735 4.91745 5.27289C4.9833 5.13842 5.08555 5.02513 5.21259 4.9459C5.33963 4.86667 5.48636 4.82468 5.63608 4.82471H8.94275C9.06447 4.82489 9.18456 4.85285 9.29385 4.90645C9.40314 4.96006 9.49875 5.0379 9.57341 5.13404L26.9961 27.534C27.0879 27.6523 27.1447 27.7939 27.16 27.9429C27.1753 28.0918 27.1485 28.2421 27.0827 28.3765C27.0169 28.511 26.9146 28.6243 26.7876 28.7035C26.6605 28.7827 26.5138 28.8247 26.3641 28.8247H23.0574C22.9357 28.8245 22.8156 28.7966 22.7063 28.743C22.597 28.6894 22.5014 28.6115 22.4267 28.5154Z" stroke="white" stroke-width="1.5"/>
<path d="M26.6673 4.82471L5.33398 28.8247" stroke="white" stroke-width="1.5" stroke-linecap="round"/>
</svg>
