<svg width="30" height="29" viewBox="0 0 30 29" fill="none" xmlns="http://www.w3.org/2000/svg">
<path d="M8.08822 0.424805H7.32022C6.68022 0.456805 5.84822 0.488805 5.49622 0.584805C4.92022 0.712805 4.37622 0.872805 3.92822 1.0968C3.41622 1.3528 2.93622 1.7048 2.52022 2.1208C2.10422 2.5368 1.78422 2.9848 1.49622 3.5288C1.27222 3.9768 1.08022 4.5208 0.984219 5.0648C0.920219 5.4488 0.856219 6.2808 0.824219 6.9208V22.5048C0.856219 23.1448 0.888219 23.9768 0.984219 24.3288C1.11222 24.9048 1.27222 25.4488 1.49622 25.8968C1.75222 26.4088 2.10422 26.8888 2.52022 27.3048C2.93622 27.7208 3.38422 28.0408 3.92822 28.3288C4.37622 28.5528 4.92022 28.7448 5.46422 28.8408C5.84822 28.9048 6.68022 28.9688 7.32022 29.0008H22.9042C23.5442 28.9688 24.3762 28.9368 24.7282 28.8408C25.3042 28.7128 25.8482 28.5528 26.2962 28.3288C26.8082 28.0728 27.2882 27.7208 27.7042 27.3048C28.1202 26.8888 28.4402 26.4408 28.7282 25.8968C28.9522 25.4488 29.1442 24.9048 29.2402 24.3608C29.3042 23.9768 29.3682 23.1448 29.4002 22.5048V6.9208C29.3682 6.2808 29.3362 5.4488 29.2402 5.0968C29.1122 4.5208 28.9522 3.9768 28.7282 3.5288C28.4722 3.0168 28.1202 2.5368 27.7042 2.1208C27.2882 1.7048 26.8402 1.3848 26.2962 1.0968C25.8482 0.872805 25.3042 0.680805 24.7602 0.584805C24.3762 0.520805 23.5442 0.456805 22.9042 0.424805H8.08822Z" fill="url(#paint0_linear_121_280)"/>
<path d="M20.3125 16.2329C20.0565 16.1049 18.7765 15.4969 18.5525 15.4009C18.3285 15.3049 18.1365 15.2729 17.9765 15.5289C17.8165 15.7849 17.3045 16.3609 17.1765 16.5209C17.0165 16.6809 16.8885 16.7129 16.6325 16.5849C16.3765 16.4569 15.5445 16.2009 14.5525 15.3369C13.7845 14.6649 13.2725 13.8329 13.1125 13.5769C12.9525 13.3209 13.1125 13.1929 13.2405 13.0649C13.3685 12.9369 13.4965 12.7769 13.6245 12.6169C13.7525 12.4569 13.7845 12.3609 13.8805 12.2009C13.9765 12.0409 13.9125 11.8809 13.8485 11.7529C13.7845 11.6249 13.2725 10.3769 13.0485 9.86491C12.8245 9.38491 12.6325 9.44891 12.4725 9.41691H11.9925C11.8325 9.41691 11.5445 9.48091 11.3205 9.73691C11.0965 9.99291 10.4245 10.6009 10.4245 11.8489C10.4245 13.0969 11.3525 14.2809 11.4805 14.4729C11.6085 14.6329 13.3045 17.1929 15.8645 18.2809C16.4725 18.5369 16.9525 18.6969 17.3365 18.8249C17.9445 19.0169 18.5205 18.9849 18.9685 18.9209C19.4485 18.8569 20.5045 18.3129 20.6965 17.7369C20.9205 17.1609 20.9205 16.6489 20.8565 16.5529C20.7285 16.4249 20.5685 16.3609 20.3125 16.2329ZM15.4165 22.8249C13.8805 22.8249 12.4085 22.4089 11.0965 21.6409L10.7765 21.4489L7.57653 22.2809L8.44053 19.1769L8.24853 18.8569C7.41653 17.5129 6.96853 15.9769 6.96853 14.3769C6.96853 9.73691 10.7765 5.96091 15.4485 5.96091C17.6565 5.96091 19.8005 6.82491 21.4005 8.42491C23.0005 10.0249 23.8645 12.1369 23.8645 14.3769C23.8645 19.0169 20.0565 22.8249 15.4165 22.8249ZM22.6165 7.20891C20.6965 5.28891 18.1365 4.23291 15.4165 4.23291C9.81653 4.23291 5.24053 8.77691 5.24053 14.3769C5.24053 16.1689 5.72053 17.8969 6.58453 19.4329L5.14453 24.6809L10.5205 23.2729C11.9925 24.0729 13.6885 24.5209 15.3845 24.5209C20.9845 24.5209 25.5605 19.9769 25.5605 14.3769C25.5925 11.6889 24.5365 9.12891 22.6165 7.20891Z" fill="white"/>
<defs>
<linearGradient id="paint0_linear_121_280" x1="15.1218" y1="0.431205" x2="15.1218" y2="28.9816" gradientUnits="userSpaceOnUse">
<stop stop-color="#62FA7F"/>
<stop offset="0.686" stop-color="#22CC40"/>
<stop offset="1" stop-color="#05B723"/>
</linearGradient>
</defs>
</svg>
